<?xml version="1.0" encoding="utf-8"?>
<!-- Generator: Adobe Illustrator 23.1.1, SVG Export Plug-In . SVG Version: 6.00 Build 0)  -->
<svg version="1.1" id="Layer_1" xmlns="http://www.w3.org/2000/svg" xmlns:xlink="http://www.w3.org/1999/xlink" x="0px" y="0px"
	 viewBox="0 0 18.5 20.2" style="enable-background:new 0 0 18.5 20.2;" xml:space="preserve">
<style type="text/css">
	.st0{fill:#F9AD41;}
	.st1{fill:#F27A70;}
	.st2{fill:url(#SVGID_1_);}
	.st3{fill:url(#SVGID_2_);}
	.st4{fill:#B163DD;}
	.st5{fill:#6C40F6;}
	.st6{fill:#16BFEF;}
	.st7{fill:#4778EE;}
	.st8{fill:url(#SVGID_3_);}
	.st9{fill:#312D2D;}
	.st10{fill:#FFFFFF;}
	.st11{fill:#C2D83F;}
	.st12{fill:#76C169;}
	.st13{fill:url(#SVGID_4_);}
	.st14{opacity:0.15;}
	.st15{fill:url(#SVGID_5_);stroke:url(#SVGID_6_);stroke-miterlimit:10;}
	.st16{fill:none;stroke:#D1D3D4;stroke-width:10;stroke-miterlimit:10;}
	.st17{fill:none;stroke:url(#SVGID_7_);stroke-width:17;stroke-miterlimit:10;}
	.st18{fill:url(#SVGID_8_);}
	.st19{fill:url(#SVGID_9_);}
	.st20{fill:url(#SVGID_10_);}
	.st21{fill:none;stroke:#BCBEC0;stroke-width:1.2614;stroke-miterlimit:10;}
	.st22{fill:url(#SVGID_11_);}
	.st23{fill:none;stroke:#BCBEC0;stroke-width:1.8282;stroke-miterlimit:10;}
	.st24{fill:none;stroke:url(#SVGID_12_);stroke-width:2;stroke-miterlimit:10;}
	.st25{fill:none;stroke:url(#SVGID_13_);stroke-width:2;stroke-miterlimit:10;}
	.st26{fill:url(#SVGID_14_);}
	.st27{fill:url(#SVGID_15_);stroke:url(#SVGID_16_);stroke-miterlimit:10;}
	.st28{fill:none;stroke:url(#SVGID_17_);stroke-width:17;stroke-miterlimit:10;}
	.st29{fill:url(#SVGID_18_);}
	.st30{fill:url(#SVGID_19_);}
	.st31{fill:url(#SVGID_20_);}
	.st32{fill:none;stroke:#A7A9AC;stroke-miterlimit:10;}
	.st33{fill:url(#SVGID_21_);stroke:url(#SVGID_22_);stroke-miterlimit:10;}
	.st34{fill:url(#SVGID_23_);stroke:url(#SVGID_24_);stroke-miterlimit:10;}
	.st35{fill:url(#SVGID_25_);stroke:url(#SVGID_26_);stroke-miterlimit:10;}
	.st36{fill:url(#SVGID_27_);}
	.st37{fill:url(#SVGID_28_);}
	.st38{fill:url(#SVGID_29_);stroke:url(#SVGID_30_);stroke-miterlimit:10;}
	.st39{fill:none;stroke:url(#SVGID_31_);stroke-width:17;stroke-miterlimit:10;}
	.st40{fill:url(#SVGID_32_);}
	.st41{fill:none;stroke:url(#SVGID_33_);stroke-width:2;stroke-miterlimit:10;}
	.st42{fill:none;stroke:url(#SVGID_34_);stroke-width:2;stroke-miterlimit:10;}
	.st43{fill:url(#SVGID_35_);}
	.st44{fill:url(#SVGID_36_);}
	.st45{fill:url(#SVGID_37_);stroke:url(#SVGID_38_);stroke-miterlimit:10;}
	.st46{fill:none;stroke:url(#SVGID_39_);stroke-width:2;stroke-miterlimit:10;}
	.st47{fill:url(#SVGID_40_);}
	.st48{fill:none;stroke:#BCBEC0;stroke-width:0.75;stroke-miterlimit:10;}
	.st49{fill:none;stroke:url(#SVGID_41_);stroke-width:2;stroke-miterlimit:10;}
	.st50{fill:url(#SVGID_42_);}
	.st51{fill:none;stroke:url(#SVGID_43_);stroke-width:2;stroke-miterlimit:10;}
	.st52{fill:url(#SVGID_44_);}
	.st53{fill:none;stroke:url(#SVGID_45_);stroke-width:2;stroke-miterlimit:10;}
	.st54{fill:url(#SVGID_46_);}
	.st55{fill:#D1D3D4;}
	.st56{fill:url(#SVGID_47_);stroke:url(#SVGID_48_);stroke-miterlimit:10;}
	.st57{fill:none;stroke:url(#SVGID_49_);stroke-width:17;stroke-miterlimit:10;}
	.st58{fill:url(#SVGID_50_);}
	.st59{fill:url(#SVGID_51_);stroke:url(#SVGID_52_);stroke-miterlimit:10;}
	.st60{fill:none;stroke:url(#SVGID_53_);stroke-width:2;stroke-miterlimit:10;}
	.st61{fill:url(#SVGID_54_);}
	.st62{fill:none;stroke:url(#SVGID_55_);stroke-width:2;stroke-miterlimit:10;}
	.st63{fill:url(#SVGID_56_);}
	.st64{fill:none;stroke:url(#SVGID_57_);stroke-width:2;stroke-miterlimit:10;}
	.st65{fill:url(#SVGID_58_);}
	.st66{fill:#00A79D;}
</style>
<g>
	<path class="st55" d="M3.3,20.2h10.2c1.8,0,3.3-1.5,3.3-3.3V9.2c0-0.4-0.3-0.8-0.8-0.8c-0.4,0-0.8,0.3-0.8,0.8v7.7
		c0,1-0.8,1.8-1.8,1.8H3.3c-1,0-1.8-0.8-1.8-1.8V4.4c0-1,0.8-1.8,1.8-1.8h6.2c0.4,0,0.8-0.3,0.8-0.8S9.9,1.1,9.5,1.1H3.3
		C1.5,1.1,0,2.5,0,4.4v12.5C0,18.8,1.5,20.2,3.3,20.2z"/>
	<path class="st55" d="M17.7,0.7L17.7,0.7c-1-0.9-2.5-0.9-3.4,0L7.2,7.8C7.1,7.9,7,8,7,8.1l-1.2,3.6c-0.1,0.4,0.1,0.8,0.5,1
		c0.1,0,0.2,0,0.2,0l0.3-0.1l3.6-1.2c0.1,0,0.2-0.1,0.3-0.2l7.1-7.1C18.7,3.2,18.7,1.7,17.7,0.7C17.8,0.7,17.7,0.7,17.7,0.7z
		 M16.7,3.1l-7,7l-1.9,0.7l0.7-2l7-7c0.3-0.4,0.9-0.5,1.3-0.2c0.4,0.3,0.5,0.9,0.2,1.3C16.8,2.9,16.7,3,16.7,3.1L16.7,3.1z"/>
</g>
</svg>
